[Header]
FileType HTR
DataType HTRS
FileVersion 1
NumSegments 64
NumFrames 3
DataFrameRate 24
EulerRotationOrder ZYX
CalibrationUnits mm
RotationUnits Degrees
GlobalAxisofGravity Y
BoneLengthAxis Y
ScaleFactor 1.0
[SegmentNames&Hierarchy]
Hips	GLOBAL
Spine	Hips
Spine1	Spine
Spine2	Spine1
Neck	Spine2
Head	Neck
LeftEye	Head
RightEye	Head
LeftShoulder	Spine2
LeftArm	LeftShoulder
LeftForeArm	LeftArm
LeftHand	LeftForeArm
LeftHandThumb1	LeftHand
LeftHandThumb2	LeftHandThumb1
LeftHandThumb3	LeftHandThumb2
LeftHandThumb4	LeftHandThumb3
LeftHandIndex1	LeftHand
LeftHandIndex2	LeftHandIndex1
LeftHandIndex3	LeftHandIndex2
LeftHandIndex4	LeftHandIndex3
LeftHandMiddle1	LeftHand
LeftHandMiddle2	LeftHandMiddle1
LeftHandMiddle3	LeftHandMiddle2
LeftHandMiddle4	LeftHandMiddle3
LeftHandRing1	LeftHand
LeftHandRing2	LeftHandRing1
LeftHandRing3	LeftHandRing2
LeftHandRing4	LeftHandRing3
LeftHandPinky1	LeftHand
LeftHandPinky2	LeftHandPinky1
LeftHandPinky3	LeftHandPinky2
LeftHandPinky4	LeftHandPinky3
RightShoulder	Spine2
RightArm	RightShoulder
RightForeArm	RightArm
RightHand	RightForeArm
RightHandPinky1	RightHand
RightHandPinky2	RightHandPinky1
RightHandPinky3	RightHandPinky2
RightHandPinky4	RightHandPinky3
RightHandRing1	RightHand
RightHandRing2	RightHandRing1
RightHandRing3	RightHandRing2
RightHandRing4	RightHandRing3
RightHandMiddle1	RightHand
RightHandMiddle2	RightHandMiddle1
RightHandMiddle3	RightHandMiddle2
RightHandMiddle4	RightHandMiddle3
RightHandIndex1	RightHand
RightHandIndex2	RightHandIndex1
RightHandIndex3	RightHandIndex2
RightHandIndex4	RightHandIndex3
RightHandThumb1	RightHand
RightHandThumb2	RightHandThumb1
RightHandThumb3	RightHandThumb2
RightHandThumb4	RightHandThumb3
LeftUpLeg	Hips
LeftLeg	LeftUpLeg
LeftFoot	LeftLeg
LeftToeBase	LeftFoot
RightUpLeg	Hips
RightLeg	RightUpLeg
RightFoot	RightLeg
RightToeBase	RightFoot
[BasePosition]
Hips	0	0	0	0	0	0	1
Spine	0	0	0	0	0	0	1
Spine1	0	0	0	0	0	0	1
Spine2	0	0	0	0	0	0	1
Neck	0	0	0	0	0	0	1
Head	0	0	0	0	0	0	1
LeftEye	0	0	0	0	0	0	1
RightEye	0	0	0	0	0	0	1
LeftShoulder	0	0	0	0	0	0	1
LeftArm	0	0	0	0	0	0	1
LeftForeArm	0	0	0	0	0	0	1
LeftHand	0	0	0	0	0	0	1
LeftHandThumb1	0	0	0	0	0	0	1
LeftHandThumb2	0	0	0	0	0	0	1
LeftHandThumb3	0	0	0	0	0	0	1
LeftHandThumb4	0	0	0	0	0	0	1
LeftHandIndex1	0	0	0	0	0	0	1
LeftHandIndex2	0	0	0	0	0	0	1
LeftHandIndex3	0	0	0	0	0	0	1
LeftHandIndex4	0	0	0	0	0	0	1
LeftHandMiddle1	0	0	0	0	0	0	1
LeftHandMiddle2	0	0	0	0	0	0	1
LeftHandMiddle3	0	0	0	0	0	0	1
LeftHandMiddle4	0	0	0	0	0	0	1
LeftHandRing1	0	0	0	0	0	0	1
LeftHandRing2	0	0	0	0	0	0	1
LeftHandRing3	0	0	0	0	0	0	1
LeftHandRing4	0	0	0	0	0	0	1
LeftHandPinky1	0	0	0	0	0	0	1
LeftHandPinky2	0	0	0	0	0	0	1
LeftHandPinky3	0	0	0	0	0	0	1
LeftHandPinky4	0	0	0	0	0	0	1
RightShoulder	0	0	0	0	0	0	1
RightArm	0	0	0	0	0	0	1
RightForeArm	0	0	0	0	0	0	1
RightHand	0	0	0	0	0	0	1
RightHandPinky1	0	0	0	0	0	0	1
RightHandPinky2	0	0	0	0	0	0	1
RightHandPinky3	0	0	0	0	0	0	1
RightHandPinky4	0	0	0	0	0	0	1
RightHandRing1	0	0	0	0	0	0	1
RightHandRing2	0	0	0	0	0	0	1
RightHandRing3	0	0	0	0	0	0	1
RightHandRing4	0	0	0	0	0	0	1
RightHandMiddle1	0	0	0	0	0	0	1
RightHandMiddle2	0	0	0	0	0	0	1
RightHandMiddle3	0	0	0	0	0	0	1
RightHandMiddle4	0	0	0	0	0	0	1
RightHandIndex1	0	0	0	0	0	0	1
RightHandIndex2	0	0	0	0	0	0	1
RightHandIndex3	0	0	0	0	0	0	1
RightHandIndex4	0	0	0	0	0	0	1
RightHandThumb1	0	0	0	0	0	0	1
RightHandThumb2	0	0	0	0	0	0	1
RightHandThumb3	0	0	0	0	0	0	1
RightHandThumb4	0	0	0	0	0	0	1
LeftUpLeg	0	0	0	0	0	0	1
LeftLeg	0	0	0	0	0	0	1
LeftFoot	0	0	0	0	0	0	1
LeftToeBase	0	0	0	0	0	0	1
RightUpLeg	0	0	0	0	0	0	1
RightLeg	0	0	0	0	0	0	1
RightFoot	0	0	0	0	0	0	1
RightToeBase	0	0	0	0	0	0	1
[Hips]
7	21.42661285	879.3319092	1120.673218	18.68660164	4.300782204	5.168008327	1.0
8	23.91477203	854.496582	1273.908936	19.4757576	7.524698734	7.445271015	1.0
9	20.61703491	843.2261963	1451.16626	20.1724968	13.32210445	5.368674755	1.0
[Spine]
7	0	101.8159943	1.315000057	11.00780296	8.098487854	-7.194280148	1.0
8	0	101.8159943	1.315000057	13.46877861	2.24582839	-8.853035927	1.0
9	0	101.8159943	1.315000057	14.18195915	-5.991209507	-5.733801365	1.0
[Spine1]
7	0	100.8349991	-10.00800037	1.853394628	1.965335011	-1.387091875	1.0
8	0	100.8349991	-10.00800037	1.765687823	0.4590463638	-1.653177738	1.0
9	0	100.8349991	-10.00800037	1.495516777	-1.654756069	-0.9981771708	1.0
[Spine2]
7	0	91	-13.73399925	1.828339934	1.963904858	-1.432555199	1.0
8	0	91	-13.73399925	1.754305482	0.4855439067	-1.676959753	1.0
9	0	91	-13.73399925	1.516443253	-1.622543335	-0.9993201494	1.0
[Neck]
7	0	166.7169952	-25.16200066	-5.805605412	-2.945307493	0.9102131724	1.0
8	0	166.7169952	-25.16200066	-6.280428886	-2.499431849	0.8796516061	1.0
9	0	166.7169952	-25.16200066	-6.604777336	-1.811034441	1.13351965	1.0
[Head]
7	0	96.17900085	16.84999847	-24.8091507	-13.50706863	12.42687225	1.0
8	0	96.17900085	16.84999847	-26.04345131	-10.564538	14.45935631	1.0
9	0	96.17900085	16.84999847	-25.66507912	-5.93494606	13.35317135	1.0
[LeftEye]
7	30.6760006	64.09500122	92.83599854	0	0	0	1.0
8	30.6760006	64.09500122	92.83599854	0	0	0	1.0
9	30.6760006	64.09500122	92.83599854	0	0	0	1.0
[RightEye]
7	-30.6760006	64.09500122	92.83499908	0	0	0	1.0
8	-30.6760006	64.09500122	92.83499908	0	0	0	1.0
9	-30.6760006	64.09500122	92.83499908	0	0	0	1.0
[LeftShoulder]
7	45.70400238	109.4599991	-26.28000069	1.564498663	-2.651500463	-19.45389175	1.0
8	45.70400238	109.4599991	-26.28000069	2.362937212	-5.311980247	-21.0083313	1.0
9	45.70400238	109.4599991	-26.28000069	2.851119518	-8.748714447	-17.1092186	1.0
[LeftArm]
7	105.923996	-5.24600029	-22.32099915	14.82202625	8.917812347	-43.58650208	1.0
8	105.923996	-5.24600029	-22.32099915	13.12837982	-16.50202179	-41.84360886	1.0
9	105.923996	-5.24600029	-22.32099915	4.608849525	-33.21918488	-36.38562393	1.0
[LeftForeArm]
7	278.414978	-0.0009999999311	0	-1.651736784e-05	-75.54167938	-0.0001770973468	1.0
8	278.414978	-0.0009999999311	0	6.581495836e-05	-72.563797	-0.0002792799787	1.0
9	278.414978	-0.0009999999311	0	-4.039283522e-05	-77.49543762	-0.0001579838863	1.0
[LeftHand]
7	283.2879944	0	0	11.38496876	-22.48013115	18.8819809	1.0
8	283.2879944	0	0	7.314592838	-27.29456711	21.06240845	1.0
9	283.2879944	0	0	7.124378681	-34.8783493	21.84790611	1.0
[LeftHandThumb1]
7	24.6609993	-15.75	26.8239994	-7.687894821	-2.87317729	19.62811661	1.0
8	24.6609993	-15.75	26.8239994	-7.687894821	-2.87317729	19.62811661	1.0
9	24.6609993	-15.75	26.8239994	-7.687894821	-2.87317729	19.62811661	1.0
[LeftHandThumb2]
7	32.29800034	-18.64699936	18.64699936	10.49015808	31.0901947	-9.441718102	1.0
8	32.29800034	-18.64699936	18.64699936	10.49280262	30.69070625	-9.360733032	1.0
9	32.29800034	-18.64699936	18.64699936	9.99908638	25.98199654	-8.510648727	1.0
[LeftHandThumb3]
7	26.52600098	-15.31499958	15.31499958	-19.43727303	-29.00897598	31.14180946	1.0
8	26.52600098	-15.31499958	15.31499958	-22.22729492	-32.63749695	38.44211197	1.0
9	26.52600098	-15.31499958	15.31499958	-25.62190819	-36.75768661	47.47621918	1.0
[LeftHandThumb4]
7	19.54599953	-11.28499985	11.28499985	0	0	0	1.0
8	19.54599953	-11.28499985	11.28499985	0	0	0	1.0
9	19.54599953	-11.28499985	11.28499985	0	0	0	1.0
[LeftHandIndex1]
7	91.09299469	-5.170999527	22.60099792	6.005300045	-10.3211813	-8.023046494	1.0
8	91.09299469	-5.170999527	22.60099792	5.230144978	-8.632923126	-13.56505489	1.0
9	91.09299469	-5.170999527	22.60099792	4.434587002	-6.944521904	-19.58419418	1.0
[LeftHandIndex2]
7	36.76399994	0	0	-5.313279629	5.802755833	-84.94962311	1.0
8	36.76399994	0	0	-5.230193615	5.794837952	-84.12722015	1.0
9	36.76399994	0	0	-5.140923977	5.785012722	-83.24248505	1.0
[LeftHandIndex3]
7	28.83100128	0	0	-0.8786894083	3.080349207	-31.83553123	1.0
8	28.83100128	0	0	-0.8887889385	3.096572638	-32.02321625	1.0
9	28.83100128	0	0	-0.8986244798	3.112177372	-32.20456314	1.0
[LeftHandIndex4]
7	23.92700005	0	0	0	0	0	1.0
8	23.92700005	0	0	0	0	0	1.0
9	23.92700005	0	0	0	0	0	1.0
[LeftHandMiddle1]
7	95.33399963	0	0	-3.472373009	-8.08477211	-47.10141754	1.0
8	95.33399963	0	0	-3.830782413	-7.567941666	-50.40698242	1.0
9	95.33399963	0	0	-4.297875881	-7.451678276	-54.67311096	1.0
[LeftHandMiddle2]
7	36.98199844	0	0	-3.890204191	5.495508194	-70.56819153	1.0
8	36.98199844	0	0	-3.772671223	5.452795506	-69.33595276	1.0
9	36.98199844	0	0	-3.668985128	5.412721157	-68.24088287	1.0
[LeftHandMiddle3]
7	29.50900078	0	0	-1.408855438	3.802296638	-40.65014267	1.0
8	29.50900078	0	0	-1.444381952	3.843183041	-41.18284988	1.0
9	29.50900078	0	0	-1.423816681	3.819643497	-40.87542725	1.0
[LeftHandMiddle4]
7	28.3390007	0	0	0	0	0	1.0
8	28.3390007	0	0	0	0	0	1.0
9	28.3390007	0	0	0	0	0	1.0
[LeftHandRing1]
7	91.04499817	-0.4390000105	-18.65100098	-4.37460041	-1.184278011	-55.09895325	1.0
8	91.04499817	-0.4390000105	-18.65100098	-4.514601231	-1.224995971	-56.38305283	1.0
9	91.04499817	-0.4390000105	-18.65100098	-4.649614811	-2.573362827	-57.66070175	1.0
[LeftHandRing2]
7	31.54000092	0	0	-5.465312958	5.814131737	-86.45175171	1.0
8	31.54000092	0	0	-5.32203722	5.803520203	-85.03631592	1.0
9	31.54000092	0	0	-5.090174198	5.778805256	-82.73847198	1.0
[LeftHandRing3]
7	29.37700081	0	0	-1.163295865	3.496651649	-36.79384232	1.0
8	29.37700081	0	0	-1.186591983	3.527530909	-37.17408752	1.0
9	29.37700081	0	0	-1.175516963	3.512924671	-36.99383163	1.0
[LeftHandRing4]
7	26.47500038	0	0	0	0	0	1.0
8	26.47500038	0	0	0	0	0	1.0
9	26.47500038	0	0	0	0	0	1.0
[LeftHandPinky1]
7	80.77799988	-4.887000084	-38.06099701	-3.800617218	-1.289517522	-49.73999023	1.0
8	80.77799988	-4.887000084	-38.06099701	-3.952988386	-2.083719492	-51.20474625	1.0
9	80.77799988	-4.887000084	-38.06099701	-4.189074039	-2.638720751	-53.43522263	1.0
[LeftHandPinky2]
7	36	0	0	-2.916248798	5.049043655	-59.99861145	1.0
8	36	0	0	-2.969306707	5.079210281	-60.59986877	1.0
9	36	0	0	-3.077632904	5.138505459	-61.8161087	1.0
[LeftHandPinky3]
7	21.14200211	0	0	-1.455063105	3.855362177	-41.3421402	1.0
8	21.14200211	0	0	-1.5140481	3.92119503	-42.21183777	1.0
9	21.14200211	0	0	-1.514582157	3.921830416	-42.22002029	1.0
[LeftHandPinky4]
7	19.75699997	0	0	0	0	0	1.0
8	19.75699997	0	0	0	0	0	1.0
9	19.75699997	0	0	0	0	0	1.0
[RightShoulder]
7	-45.70000076	109.4620056	-26.28000069	1.579345107	2.853256464	18.27349281	1.0
8	-45.70000076	109.4620056	-26.28000069	1.116216898	1.223384976	16.59217262	1.0
9	-45.70000076	109.4620056	-26.28000069	0.9157570004	0.4429261088	15.69185925	1.0
[RightArm]
7	-105.9280014	-5.248000145	-22.32099915	18.07223701	-4.208140373	42.95585632	1.0
8	-105.9280014	-5.248000145	-22.32099915	17.1835022	-12.94102192	53.57855988	1.0
9	-105.9280014	-5.248000145	-22.32099915	19.29177666	-27.15491676	49.52362061	1.0
[RightForeArm]
7	-278.414978	0	0	-6.314839266e-05	85.99300385	-5.281946505e-05	1.0
8	-278.414978	0	0	3.320112228e-06	63.40966034	6.276866316e-06	1.0
9	-278.414978	0	0	7.75474291e-06	60.75439453	1.74803663e-05	1.0
[RightHand]
7	-283.2879944	0	0.0009999999311	36.79113388	8.253382683	-11.72483349	1.0
8	-283.2879944	0	0.0009999999311	30.02426529	8.32690239	-5.389757633	1.0
9	-283.2879944	0	0.0009999999311	25.62681961	4.690237522	1.993616581	1.0
[RightHandPinky1]
7	-80.76699829	-4.885000229	-38.06000137	-6.832828045	0.5188990831	81.35365295	1.0
8	-80.76699829	-4.885000229	-38.06000137	-7.213766575	0.164137587	81.62852478	1.0
9	-80.76699829	-4.885000229	-38.06000137	-8.930523872	-1.065656304	86.01818085	1.0
[RightHandPinky2]
7	-36	0	0.0009999999311	-3.603166342	-4.51535368	77.18763733	1.0
8	-36	0	0.0009999999311	-3.640148878	-4.523607254	77.65672302	1.0
9	-36	0	0.0009999999311	-3.69717145	-4.535686493	78.37893677	1.0
[RightHandPinky3]
7	-21.14200211	0	0	-3.036773205	-4.34818697	69.84797668	1.0
8	-21.14200211	0	0	-3.036143303	-4.3479352	69.83963013	1.0
9	-21.14200211	0	0	-2.918255806	-4.302960873	68.27669525	1.0
[RightHandPinky4]
7	-19.75699997	0	0	0	0	0	1.0
8	-19.75699997	0	0	0	0	0	1.0
9	-19.75699997	0	0	0	0	0	1.0
[RightHandRing1]
7	-91.03599548	-0.4390000105	-18.65100098	-5.542495728	2.82754612	74.06103516	1.0
8	-91.03599548	-0.4390000105	-18.65100098	-5.59509325	2.754738092	74.64575958	1.0
9	-91.03599548	-0.4390000105	-18.65100098	-5.778456211	1.237901688	76.76477051	1.0
[RightHandRing2]
7	-31.54000092	0	0	-3.240312338	-4.417342663	72.51104736	1.0
8	-31.54000092	0	0	-3.444304228	-4.476336956	75.14143372	1.0
9	-31.54000092	0	0	-3.483056784	-4.486400604	75.63743591	1.0
[RightHandRing3]
7	-29.37700081	0	0	-1.285796642	-3.204092979	43.72211456	1.0
8	-29.37700081	0	0	-1.225848317	-3.140287638	42.63903046	1.0
9	-29.37700081	0	0	-1.039426684	-2.925222158	39.11653137	1.0
[RightHandRing4]
7	-26.47500038	0	0	0	0	0	1.0
8	-26.47500038	0	0	0	0	0	1.0
9	-26.47500038	0	0	0	0	0	1.0
[RightHandMiddle1]
7	-95.32500458	0	0	-4.129263878	5.124565601	58.60769653	1.0
8	-95.32500458	0	0	-4.19423914	5.722253799	59.32672119	1.0
9	-95.32500458	0	0	-4.350218296	5.487439632	61.05644989	1.0
[RightHandMiddle2]
7	-36.98199844	0	0	-3.118198395	-4.377099991	70.91825867	1.0
8	-36.98199844	0	0	-3.226244926	-4.412908554	72.32814026	1.0
9	-36.98199844	0	0	-3.231027842	-4.414422512	72.39054871	1.0
[RightHandMiddle3]
7	-29.50900078	0	0	-2.042253971	-3.842939377	55.98735046	1.0
8	-29.50900078	0	0	-1.986397624	-3.804730177	55.14932251	1.0
9	-29.50900078	0	0	-1.769649982	-3.644561529	51.81196213	1.0
[RightHandMiddle4]
7	-28.3390007	0	0.0009999999311	0	0	0	1.0
8	-28.3390007	0	0.0009999999311	0	0	0	1.0
9	-28.3390007	0	0.0009999999311	0	0	0	1.0
[RightHandIndex1]
7	-91.08300018	-5.167999744	22.60099792	-1.849742651	-0.9191760421	51.78894043	1.0
8	-91.08300018	-5.167999744	22.60099792	-1.478897691	-0.1541991085	51.94248581	1.0
9	-91.08300018	-5.167999744	22.60099792	-1.516558051	0.1313289702	54.68355179	1.0
[RightHandIndex2]
7	-36.76399994	0	0	-2.218392849	-3.953811407	58.57857895	1.0
8	-36.76399994	0	0	-2.415932417	-4.067627907	61.40198898	1.0
9	-36.76399994	0	0	-2.332533836	-4.021150112	60.21955872	1.0
[RightHandIndex3]
7	-28.83100128	0	0	-0.8814475536	-2.719685555	35.90926743	1.0
8	-28.83100128	0	0	-0.8614618778	-2.691906929	35.48575211	1.0
9	-28.83100128	0	0	-0.849221468	-2.674674988	35.22431564	1.0
[RightHandIndex4]
7	-23.92700005	0	0	0	0	0	1.0
8	-23.92700005	0	0	0	0	0	1.0
9	-23.92700005	0	0	0	0	0	1.0
[RightHandThumb1]
7	-24.64799881	-15.72700024	26.82600021	-10.80079556	1.639939547	-1.271696329	1.0
8	-24.64799881	-15.72700024	26.82600021	-10.80079556	1.639939547	-1.271696329	1.0
9	-24.64799881	-15.72700024	26.82600021	-10.80079556	1.639939547	-1.271696329	1.0
[RightHandThumb2]
7	-32.29800034	-18.64699936	18.64699936	22.11572266	-31.78791618	-4.263122559	1.0
8	-32.29800034	-18.64699936	18.64699936	21.75525856	-30.74715424	-4.274949074	1.0
9	-32.29800034	-18.64699936	18.64699936	20.78460121	-27.7361908	-4.335372925	1.0
[RightHandThumb3]
7	-26.52600098	-15.31399918	15.31399918	-17.64317513	24.89897346	-16.94901848	1.0
8	-26.52600098	-15.31399918	15.31399918	-17.25572014	21.50469398	-12.45346832	1.0
9	-26.52600098	-15.31399918	15.31399918	-16.85131645	17.18953896	-7.443879128	1.0
[RightHandThumb4]
7	-19.54599953	-11.28499985	11.28499985	0	0	0	1.0
8	-19.54599953	-11.28499985	11.28499985	0	0	0	1.0
9	-19.54599953	-11.28499985	11.28499985	0	0	0	1.0
[LeftUpLeg]
7	82.07800293	-67.51699829	-15.99599934	-61.53891373	1.620213151	-3.205912828	1.0
8	82.07800293	-67.51699829	-15.99599934	-55.1734314	0.228705138	-4.548713207	1.0
9	82.07800293	-67.51699829	-15.99599934	-43.26387787	2.422567844	-0.006262585055	1.0
[LeftLeg]
7	0	-443.7049866	2.845999956	59.55507278	7.538475513	6.7153368	1.0
8	0	-443.7049866	2.845999956	68.62726593	4.812582016	5.936629295	1.0
9	0	-443.7049866	2.845999956	68.81942749	1.848991275	2.795230865	1.0
[LeftFoot]
7	0	-444.2789917	-29.8219986	-15.30416203	0.506111145	-2.462553263	1.0
8	0	-444.2789917	-29.8219986	-30.90934563	0.562934339	-3.051434517	1.0
9	0	-444.2789917	-29.8219986	-41.99857712	0.5680348873	-3.146714449	1.0
[LeftToeBase]
7	0	-87.28699493	107.1060028	-1.339049101	1.235720356e-05	2.587854908e-07	1.0
8	0	-87.28699493	107.1060028	-1.832144499	3.17617355e-06	-1.398846052e-06	1.0
9	0	-87.28699493	107.1060028	-2.766537666	4.731122942e-07	-1.45590343e-06	1.0
[RightUpLeg]
7	-82.07800293	-67.51699829	-15.99599934	-11.82195187	-5.047633648	-3.101706505	1.0
8	-82.07800293	-67.51699829	-15.99599934	-36.88780594	-7.74487257	-3.941838503	1.0
9	-82.07800293	-67.51699829	-15.99599934	-66.67476654	-9.746326447	1.287243366	1.0
[RightLeg]
7	0	-443.7049866	2.861999989	109.3349762	-0.03971624002	-0.785363555	1.0
8	0	-443.7049866	2.861999989	134.2761841	-5.178797722	4.081728935	1.0
9	0	-443.7049866	2.861999989	139.9874878	-6.876689911	5.262729645	1.0
[RightFoot]
7	0	-444.2770081	-29.83799934	5.609949589	-0.5072545409	6.779173374	1.0
8	0	-444.2770081	-29.83799934	-1.813457251	-0.00372245186	3.489346027	1.0
9	0	-444.2770081	-29.83799934	-3.829858065	1.106307387	4.721431732	1.0
[RightToeBase]
7	0	-87.28699493	107.1060028	-15.61662388	7.058275742e-07	1.555516974e-06	1.0
8	0	-87.28699493	107.1060028	-4.920361996	-2.060391807e-06	-1.732789542e-06	1.0
9	0	-87.28699493	107.1060028	-1.010388732	-9.277426898e-07	-1.57320369e-06	1.0
[EndOfFile]
